# xmcd CD database file
#
# Track frame offsets:
#	150
#	2845
#	12345
#	35195
#	47612
#	50202
#	52917
#	62437
#	71575
#	82182
#	94172
#	101975
#	104482
#	107227
#	115797
#	128937
#	139145
#	148660
#	151202
#	154215
#	165997
#	178510
#	191377
#	197572
#	201955
#	204467
#	207150
#	217732
#	230840
#	239072
#	249085
#	256755
#
# Disc length: 3453 seconds
#
# Revision: 0
# Processed by: cddbd v1.5.2PL0 Copyright (c) Steve Scherf et al.
# Submitted via: CDex 1.51
#
DISCID=cf0d7b20
DTITLE=Jim Reeves - Jim Reeves and Friends - Radio Days, vol 1_4
DYEAR=1998
DGENRE=Country
TTITLE0=Beaumont Rag - Intro
TTITLE1=Blue boy
TTITLE2=Four walls
TTITLE3=Archie Campbell: Make friends
TTITLE4=Beaumont Rag - Outro
TTITLE5=Beaumont Rag - Intro
TTITLE6=I get the blues when it rains
TTITLE7=He´ll have to go
TTITLE8=Stringbean: Barnyard Banyo Pickin´
TTITLE9=I don´t see you in my eyes anymore
TTITLE10=An evening prayer
TTITLE11=Beaumont Rag - Outro
TTITLE12=Beaumont Rag - Intro
TTITLE13=Billy Bayou
TTITLE14=Am I losing you ?
TTITLE15=The Blue Boys: Wheels
TTITLE16=Then I´ll stop loving you
TTITLE17=Beaumont Rag - Outro
TTITLE18=Beaumont Rag - Intro
TTITLE19=Your old love letters
TTITLE20=It´s nothing to me
TTITLE21=Dee Don: The I´ll be happy
TTITLE22=The Blue Boys: San Antonio Rose
TTITLE23=What would you do ?
TTITLE24=Beaumont Rag - Outro
TTITLE25=Beaumont Rag - Intro
TTITLE26=I´m gonna change everything
TTITLE27=Four walls
TTITLE28=In a mansion stands my love
TTITLE29=The Blue Boys: Wheels
TTITLE30=Pride goes before a fall
TTITLE31=Beaumont Rag - Outro
EXTD=YEAR: 1998
EXTT0=
EXTT1=
EXTT2=
EXTT3=
EXTT4=
EXTT5=
EXTT6=
EXTT7=
EXTT8=
EXTT9=
EXTT10=
EXTT11=
EXTT12=
EXTT13=
EXTT14=
EXTT15=
EXTT16=
EXTT17=
EXTT18=
EXTT19=
EXTT20=
EXTT21=
EXTT22=
EXTT23=
EXTT24=
EXTT25=
EXTT26=
EXTT27=
EXTT28=
EXTT29=
EXTT30=
EXTT31=
PLAYORDER=
